<svg width="22" height="23" viewBox="0 0 22 23" fill="none" xmlns="http://www.w3.org/2000/svg">
<path d="M10.5828 11.5065V17.6092L14.3873 19.8057C15.0515 20.189 15.8804 19.7098 15.8804 18.9432V14.5646L10.5828 11.5056V11.5065Z" fill="#4DEEFF"/>
<path d="M5.29761 14.5588V20.6759L9.08973 22.8647C9.75386 23.248 10.5828 22.7689 10.5828 22.0022V17.6092L5.29761 14.5579V14.5588Z" fill="#0DD1FC"/>
<path d="M15.8806 2.3314V8.44844L19.6852 10.6449C20.3493 11.0283 21.1783 10.5491 21.1783 9.78244V5.96444C21.1783 5.6089 20.9885 5.28019 20.6809 5.10194L15.8806 2.33044V2.3314Z" fill="#4DEEFF"/>
<path d="M15.8804 8.44846V2.33142L12.0758 0.134915C11.4117 -0.248418 10.5828 0.230748 10.5828 0.997415V5.39042L15.8804 8.44942V8.44846Z" fill="#0DD1FC"/>
<path d="M10.5828 11.5065L15.8804 14.5655V8.44847L10.5828 5.38947V11.5065Z" fill="#0154FC"/>
<path d="M5.29761 14.5588L10.5828 17.6101V11.5065L5.29761 8.45514V14.5588Z" fill="#0154FC"/>
<path d="M5.29761 4.06311V8.45611L10.5828 11.5074V5.3904L6.79069 3.20157C6.12657 2.81823 5.29761 3.2974 5.29761 4.06407V4.06311Z" fill="#4DEEFF"/>
<path d="M0 13.2238V17.0418C0 17.3974 0.18975 17.7261 0.497375 17.9043L5.29767 20.6758V14.5588L1.49308 12.3623C0.828958 11.9789 0 12.4581 0 13.2248V13.2238Z" fill="#4DEEFF"/>
</svg>
