<svg width="48" height="48" viewBox="0 0 48 48" fill="none" xmlns="http://www.w3.org/2000/svg">
<rect width="48" height="48" fill="white"/>
<path d="M36.28 29.1867C35.4318 31.1927 34.1051 32.9603 32.4158 34.3351C30.7266 35.7099 28.7264 36.6499 26.5899 37.0731C24.4535 37.4962 22.2459 37.3895 20.1602 36.7624C18.0745 36.1353 16.1742 35.0068 14.6254 33.4756C13.0766 31.9443 11.9264 30.057 11.2755 27.9786C10.6246 25.9002 10.4928 23.694 10.8915 21.5529C11.2902 19.4117 12.2073 17.4009 13.5627 15.6961C14.9181 13.9913 16.6705 12.6444 18.6667 11.7733M36 24C36.736 24 37.34 23.4013 37.2667 22.6693C36.9593 19.6082 35.6028 16.7476 33.4271 14.5724C31.2514 12.3973 28.3905 11.0414 25.3293 10.7347C24.596 10.6613 23.9987 11.2653 23.9987 12.0013V22.668C23.9987 23.0216 24.1392 23.3608 24.3892 23.6108C24.6392 23.8609 24.9784 24.0013 25.332 24.0013L36 24Z" stroke="currentColor" stroke-width="2" stroke-linecap="round" stroke-linejoin="round"/>
</svg>
